<?xml version="1.0" standalone="no"?>
<!DOCTYPE svg PUBLIC "-//W3C//DTD SVG 20010904//EN"
 "http://www.w3.org/TR/2001/REC-SVG-20010904/DTD/svg10.dtd">
<svg version="1.0" xmlns="http://www.w3.org/2000/svg"
 width="310.000000pt" height="310.000000pt" viewBox="0 0 310.000000 310.000000"
 preserveAspectRatio="xMidYMid meet">
<metadata>
Created by potrace 1.14, written by Peter Selinger 2001-2017
</metadata>
<g transform="translate(0.000000,310.000000) scale(0.100000,-0.100000)"
fill="#000000" stroke="none">
<path d="M39 2725 c0 0 -2 -37 -3 -82 -1 -53 2 -83 8 -83 8 0 8 -3 1 -8 -13
-8 -13 -22 -1 -41 6 -9 5 -12 0 -8 -13 8 -12 -176 1 -185 6 -5 6 -8 -2 -8 -13
0 -12 -18 1 -39 6 -8 5 -12 0 -8 -13 8 -12 -176 1 -185 6 -5 6 -8 -2 -8 -13 0
-12 -18 1 -39 6 -8 5 -12 0 -8 -13 8 -12 -176 1 -185 6 -5 6 -8 -2 -8 -13 0
-12 -18 1 -39 6 -8 5 -12 0 -8 -13 8 -12 -176 1 -185 6 -5 6 -8 -2 -8 -13 0
-12 -18 1 -39 6 -8 5 -12 0 -8 -13 8 -12 -176 1 -185 6 -5 6 -8 -2 -8 -13 0
-12 -18 1 -39 6 -8 5 -12 0 -8 -13 8 -12 -176 1 -185 6 -5 6 -8 -2 -8 -13 0
-12 -18 1 -39 6 -8 5 -12 0 -8 -13 8 -12 -176 1 -185 6 -5 6 -8 -2 -8 -13 0
-12 -18 1 -39 6 -8 5 -12 0 -8 -13 8 -12 -176 1 -185 6 -5 6 -8 -2 -8 -13 0
-12 -18 1 -39 6 -9 5 -12 -1 -8 -9 5 -11 -86 -3 -118 1 -5 1 -12 0 -15 -1 -3
-3 -17 -4 -33 -3 -31 -18 -29 174 -30 134 0 135 0 141 24 3 13 2 29 -3 36 -5
7 -5 14 2 18 8 5 8 11 -1 21 -6 8 -8 14 -3 14 5 0 9 25 9 55 0 30 -3 55 -7 55
-4 0 -5 6 -3 13 9 23 11 107 3 107 -4 0 -5 6 -2 13 8 21 10 187 2 187 -4 0 -5
6 -3 13 9 23 11 107 3 107 -4 0 -5 6 -3 13 10 26 11 107 2 107 -5 0 -5 6 2 13
8 10 7 17 -1 25 -7 7 -8 12 -2 12 10 0 11 51 0 68 -4 7 -4 12 1 12 10 0 9 52
-1 68 -4 7 -4 12 1 12 10 0 9 52 -1 68 -4 7 -4 12 1 12 4 0 8 34 8 75 0 41 -3
75 -7 75 -4 0 -5 6 -3 13 9 23 11 107 3 107 -4 0 -5 6 -3 13 9 23 11 107 3
107 -4 0 -5 6 -3 13 8 22 12 107 4 107 -3 0 -3 18 1 39 4 25 3 44 -3 50 -6 6
-7 11 -1 11 10 0 11 81 0 98 -4 7 -4 12 1 12 10 0 9 52 -1 68 -4 7 -4 12 1 12
10 0 9 52 -1 68 -4 7 -4 12 1 12 10 0 9 52 -1 68 -4 7 -4 12 1 12 4 0 8 25 8
55 0 30 -3 55 -7 55 -4 0 -5 6 -3 13 8 20 12 107 5 107 -3 0 -4 17 -2 38 l4
37 -156 0 c-86 0 -156 0 -157 0z"/>
<path d="M875 2720 c-8 -13 -2 -2330 6 -2331 12 -1 254 -1 277 0 16 1 17 51
16 944 0 518 3 951 7 962 7 18 8 18 10 -5 1 -14 1 -28 0 -32 0 -5 3 -8 9 -8 5
0 10 -11 10 -25 0 -14 5 -25 11 -25 5 0 7 -4 4 -10 -3 -5 1 -22 9 -38 8 -16
12 -32 9 -36 -4 -3 -1 -6 4 -6 6 0 10 -11 8 -25 -1 -14 2 -25 6 -25 5 0 9 -9
9 -19 0 -11 4 -22 9 -25 4 -3 12 -20 16 -38 4 -18 9 -40 12 -48 2 -8 5 -21 5
-27 1 -7 5 -13 10 -13 4 0 8 -11 8 -25 0 -14 4 -25 10 -25 5 0 7 -7 4 -15 -4
-8 -2 -15 3 -15 5 0 9 -8 10 -17 5 -45 16 -83 25 -83 5 0 6 -4 3 -10 -3 -5 -2
-10 4 -10 6 0 8 -7 5 -15 -4 -8 -2 -15 3 -15 5 0 10 -12 11 -26 1 -15 6 -32
12 -39 5 -6 7 -15 3 -18 -3 -4 -2 -7 4 -7 6 0 9 -9 6 -20 -3 -11 0 -20 6 -20
6 0 11 -11 11 -25 0 -14 4 -25 9 -25 6 0 8 -9 6 -20 -2 -11 1 -22 6 -25 5 -4
7 -10 4 -15 -3 -4 3 -11 12 -14 15 -6 15 -8 3 -16 -12 -8 -12 -10 3 -16 14 -5
15 -9 6 -20 -9 -11 -8 -15 4 -20 9 -3 14 -14 12 -25 -2 -10 1 -19 6 -19 6 0 8
-4 4 -9 -3 -5 -1 -12 4 -16 6 -3 8 -12 4 -20 -3 -8 0 -15 7 -15 6 0 9 -4 5 -9
-3 -5 -1 -12 5 -16 6 -4 8 -10 5 -15 -3 -5 -1 -17 4 -27 9 -17 21 -48 26 -65
2 -5 4 -10 5 -13 1 -3 4 -9 5 -15 1 -5 4 -13 5 -17 1 -5 2 -11 1 -16 0 -4 3
-7 9 -7 5 0 7 -7 4 -15 -4 -8 -2 -15 3 -15 5 0 10 -14 11 -32 2 -18 7 -35 12
-38 6 -3 11 -18 12 -33 1 -15 6 -27 11 -27 4 0 5 -4 2 -10 -3 -5 -1 -10 5 -10
6 0 8 -5 5 -10 -4 -6 -2 -16 3 -23 8 -11 21 -51 21 -70 0 -4 7 -20 15 -36 9
-16 12 -31 9 -35 -4 -3 -2 -6 3 -6 9 0 13 -16 14 -63 1 -10 6 -15 12 -11 7 5
9 0 5 -15 -3 -15 0 -24 10 -28 12 -5 12 -7 1 -14 -10 -7 -9 -9 4 -9 13 0 17
-6 14 -22 -2 -13 4 -34 13 -48 9 -14 11 -21 4 -17 -7 5 -5 -5 5 -22 9 -17 22
-31 27 -32 6 0 68 -1 139 -2 l129 -2 15 35 c9 19 17 40 18 45 6 31 9 40 14 45
13 13 30 51 21 45 -6 -3 -11 -1 -11 4 0 6 5 11 10 11 6 0 10 9 10 20 0 11 5
20 12 20 6 0 8 3 5 7 -4 3 -1 13 6 21 10 13 9 14 -3 7 -12 -7 -13 -6 -3 7 7 8
10 18 6 21 -3 4 -1 7 6 7 7 0 10 4 7 9 -3 5 1 21 9 37 7 15 12 31 9 36 -3 4 0
8 6 8 6 0 9 4 5 9 -3 5 -1 12 5 16 6 4 8 10 5 15 -7 12 5 41 16 35 4 -3 6 3 4
15 -2 11 1 22 6 25 5 4 7 11 4 16 -4 5 -2 9 4 9 6 0 8 7 5 15 -4 9 0 15 7 15
11 0 11 2 1 9 -10 6 -10 10 2 21 9 7 13 16 10 21 -3 5 -1 9 5 9 6 0 8 7 5 15
-4 8 -1 15 6 15 6 0 8 4 5 10 -3 5 1 23 10 40 8 16 12 30 8 30 -4 0 -2 5 5 12
7 7 12 20 12 30 0 10 5 18 11 18 6 0 9 6 6 13 -2 6 2 20 11 30 12 13 12 17 2
17 -11 0 -11 3 -2 12 7 7 12 20 12 30 0 10 4 18 8 18 4 0 9 12 10 26 1 15 6
32 11 38 7 10 18 43 22 71 0 6 6 19 12 30 6 11 10 24 9 28 -1 4 5 21 13 37 9
16 15 31 14 32 -3 8 15 65 24 76 6 7 12 27 14 44 2 17 8 37 13 44 6 6 13 22
15 35 3 12 10 26 16 30 8 5 8 8 0 14 -9 5 -9 11 -1 19 16 20 60 148 54 158 -3
4 -1 8 4 8 5 0 13 15 17 33 4 17 8 34 9 37 1 3 5 11 9 18 5 6 5 17 2 22 -3 6
-1 10 5 10 7 0 9 7 6 15 -3 9 1 18 8 21 8 3 12 14 9 25 -3 10 -1 19 4 19 5 0
10 6 11 13 1 22 13 71 18 76 11 11 22 -24 13 -41 -5 -10 -6 -18 -1 -18 9 0 6
-71 -3 -97 -2 -7 -1 -13 4 -13 5 0 5 -15 2 -32 -4 -18 -4 -52 -1 -75 4 -23 2
-49 -3 -59 -7 -12 -6 -15 3 -9 9 6 10 3 2 -12 -7 -12 -7 -25 -1 -36 7 -11 7
-17 0 -17 -6 0 -7 -8 -4 -17 4 -10 6 -33 5 -53 -4 -71 -3 -143 2 -148 3 -2 1
-14 -5 -25 -8 -15 -8 -18 1 -12 9 6 9 3 2 -12 -7 -12 -7 -25 -1 -36 7 -11 7
-17 0 -17 -6 0 -7 -8 -4 -17 4 -10 6 -33 5 -53 -4 -71 -3 -143 2 -148 3 -2 1
-14 -5 -25 -8 -15 -8 -18 1 -12 9 6 9 3 2 -12 -7 -12 -7 -25 -1 -36 7 -11 7
-17 0 -17 -6 0 -7 -8 -4 -17 4 -10 6 -33 5 -53 -4 -71 -3 -143 2 -148 3 -2 1
-14 -5 -25 -8 -15 -8 -18 1 -12 9 6 9 3 2 -12 -7 -12 -7 -25 -1 -36 7 -11 7
-17 0 -17 -6 0 -7 -8 -4 -17 4 -10 6 -33 5 -53 -4 -71 -3 -143 2 -148 3 -2 1
-14 -5 -25 -8 -15 -8 -18 1 -12 9 6 9 3 2 -12 -7 -12 -7 -25 -1 -36 7 -11 6
-17 -1 -17 -7 0 -8 -6 -2 -18 5 -9 8 -26 6 -37 -6 -34 -6 -69 -1 -93 3 -12 1
-22 -5 -22 -7 0 -7 -4 0 -12 7 -10 49 -13 152 -12 77 1 144 5 148 8 10 11 9
216 -1 209 -6 -3 -7 -1 -3 6 14 22 17 83 5 75 -8 -5 -9 -3 -4 7 12 19 13 399
1 392 -5 -3 -6 -1 -2 6 14 22 17 83 5 75 -8 -4 -9 -3 -5 5 14 22 17 83 5 75
-8 -4 -9 -3 -5 5 14 22 17 83 5 75 -8 -5 -9 -3 -4 7 12 19 13 399 1 392 -5 -3
-6 -1 -2 6 14 22 17 83 5 75 -8 -4 -9 -3 -5 5 14 22 17 83 5 75 -8 -4 -9 -3
-5 5 14 22 17 83 5 75 -8 -5 -9 -3 -4 7 12 19 13 399 1 392 -5 -3 -6 -1 -2 6
14 22 17 83 5 75 -8 -4 -9 -3 -5 5 14 22 17 83 5 75 -8 -4 -9 -3 -5 5 14 22
17 83 5 75 -8 -5 -9 -3 -3 7 12 19 11 41 -1 58 -7 11 -7 13 1 8 8 -4 11 2 10
18 0 14 -3 26 -6 26 -3 1 -96 2 -208 3 -210 1 -232 -3 -218 -39 3 -9 2 -13 -4
-10 -6 3 -11 1 -11 -4 -1 -6 -3 -14 -4 -18 -1 -5 -6 -23 -10 -40 -4 -18 -12
-33 -17 -33 -5 0 -6 -4 -3 -10 3 -5 3 -16 -2 -22 -4 -7 -9 -24 -11 -38 -2 -13
-6 -27 -10 -30 -6 -5 -11 -19 -16 -45 -1 -5 -5 -16 -9 -22 -5 -7 -5 -13 0 -13
4 0 2 -4 -6 -9 -7 -5 -14 -20 -13 -35 0 -14 -5 -26 -10 -26 -5 0 -7 -4 -3 -9
3 -5 1 -12 -4 -16 -6 -3 -7 -13 -4 -22 4 -10 2 -14 -4 -10 -7 4 -10 0 -8 -10
1 -10 -2 -23 -7 -30 -5 -7 -7 -16 -4 -22 3 -5 -1 -11 -8 -14 -8 -3 -15 -14
-15 -24 -1 -38 -5 -53 -13 -53 -4 0 -7 -3 -7 -7 3 -18 -14 -73 -23 -73 -5 0
-6 -4 -3 -10 3 -5 1 -18 -4 -29 -8 -14 -8 -21 2 -24 7 -3 4 -6 -7 -6 -12 -1
-16 -6 -13 -16 4 -8 2 -17 -4 -21 -6 -3 -8 -12 -5 -19 3 -8 0 -15 -5 -17 -5
-2 -11 -13 -12 -26 0 -12 -5 -22 -9 -22 -4 0 -7 -3 -7 -7 1 -5 0 -10 -1 -13
-3 -10 -11 -45 -12 -57 -1 -7 -5 -13 -9 -13 -5 0 -6 -7 -3 -15 4 -8 2 -15 -4
-15 -6 0 -9 -11 -8 -25 2 -13 0 -22 -4 -20 -10 6 -31 -51 -23 -59 4 -3 1 -6
-6 -6 -6 0 -11 -6 -10 -12 1 -7 -3 -26 -10 -43 -7 -16 -15 -45 -18 -62 -3 -18
-9 -31 -12 -29 -4 3 -8 -7 -9 -21 -1 -14 -7 -32 -13 -39 -6 -8 -8 -14 -4 -14
4 0 3 -6 -3 -12 -6 -7 -11 -17 -12 -23 -2 -21 -13 -60 -19 -70 -3 -5 -6 -16
-7 -23 -2 -8 -6 -21 -10 -30 -4 -9 -8 -20 -9 -24 -2 -5 -4 -10 -5 -13 -1 -3
-4 -9 -5 -15 -1 -5 -4 -12 -5 -15 -1 -3 -4 -9 -5 -15 -1 -5 -3 -11 -5 -12 -1
-2 -3 -11 -6 -20 -2 -10 -6 -26 -8 -35 -3 -10 -5 -19 -6 -20 -3 -4 -7 -20 -9
-34 0 -5 -5 -8 -10 -5 -5 4 -7 -2 -4 -13 3 -10 0 -22 -6 -25 -5 -4 -7 -14 -4
-23 5 -12 3 -14 -7 -8 -9 5 -11 4 -6 -4 4 -6 2 -19 -5 -27 -6 -8 -9 -17 -6
-21 4 -3 1 -15 -5 -27 -7 -11 -13 -24 -14 -28 -1 -5 -3 -11 -4 -15 -1 -5 -2
-11 -1 -15 2 -17 -19 -58 -30 -58 -7 0 -9 3 -6 7 4 3 -1 15 -10 26 -10 11 -12
17 -5 13 6 -4 12 -2 12 3 0 6 -5 11 -11 11 -6 0 -8 7 -5 15 3 9 -1 18 -9 21
-8 4 -12 10 -9 15 3 6 0 17 -8 26 -11 14 -11 16 2 8 11 -7 11 -3 -3 18 -10 15
-17 33 -16 40 2 20 -13 57 -23 57 -6 0 -5 6 2 15 10 12 9 16 -3 21 -9 3 -14
16 -13 34 1 16 -3 28 -8 27 -6 -1 -11 10 -11 24 0 15 -5 33 -11 40 -12 15 -40
109 -36 122 1 4 -2 7 -6 7 -8 0 -38 98 -34 113 1 4 -3 7 -9 7 -6 0 -9 7 -5 15
3 8 1 15 -3 15 -5 0 -8 8 -7 18 2 9 0 19 -4 22 -5 3 -10 16 -11 30 -2 14 -9
31 -16 38 -7 7 -10 19 -7 26 3 8 -2 25 -10 38 -9 14 -13 28 -9 32 4 4 2 10 -5
15 -6 4 -13 19 -14 34 -1 15 -5 27 -9 27 -3 0 -6 7 -7 15 -1 8 -3 22 -4 30 -1
8 -6 15 -11 15 -6 0 -7 3 -4 7 4 3 2 12 -4 19 -6 8 -9 21 -5 29 3 8 2 15 -2
15 -4 0 -12 11 -19 25 -6 14 -7 25 -2 25 5 0 3 10 -6 23 -8 13 -12 27 -8 30 3
4 1 7 -5 7 -7 0 -12 11 -12 24 0 14 -4 28 -10 31 -5 3 -10 19 -10 36 0 16 -5
29 -11 29 -7 0 -9 10 -7 25 3 15 1 22 -5 18 -6 -4 -8 0 -4 10 4 10 1 17 -5 17
-6 0 -8 3 -5 7 4 3 0 17 -9 31 -11 17 -12 22 -3 16 9 -5 8 2 -4 19 -9 15 -15
27 -11 27 3 0 -1 12 -11 26 -11 17 -12 24 -4 18 9 -5 7 2 -4 19 -10 15 -15 32
-12 37 3 5 1 11 -5 15 -6 4 -8 11 -5 16 4 5 1 9 -5 9 -6 0 -9 4 -6 8 3 5 -1
19 -8 33 -7 13 -11 30 -8 37 2 6 -2 12 -9 12 -7 0 -9 3 -6 6 3 4 2 15 -3 25
-6 10 -11 29 -12 43 -1 13 -6 22 -10 20 -4 -3 -8 6 -8 19 0 13 -3 27 -7 31 -7
7 -14 30 -16 56 -1 13 -33 15 -235 15 -129 0 -235 -2 -237 -5z"/>
</g>
</svg>
